<svg width="36" height="26" viewBox="0 0 36 26" fill="none" xmlns="http://www.w3.org/2000/svg">
<ellipse cx="19.6134" cy="22.8068" rx="3.19326" ry="3.19326" fill="#595959"/>
<path d="M0.885059 8.34626C0.33087 8.96202 0.380788 9.91046 0.996553 10.4646C1.61232 11.0188 2.56075 10.9689 3.11494 10.3532L0.885059 8.34626ZM33.3112 9.32371C33.8567 9.94716 34.8044 10.0103 35.4278 9.46482C36.0513 8.91929 36.1145 7.97165 35.5689 7.3482L33.3112 9.32371ZM3.11494 10.3532C7.35362 5.64351 13.2615 3.5 18.9804 3.5C24.7253 3.5 30.105 5.65948 33.3112 9.32371L35.5689 7.3482C31.6789 2.90241 25.4004 0.5 18.9804 0.5C12.5342 0.5 5.77015 2.91838 0.885059 8.34626L3.11494 10.3532Z" fill="#595959"/>
<path d="M6.00794 12.3443C5.42216 12.9301 5.42216 13.8798 6.00794 14.4656C6.59373 15.0514 7.54348 15.0514 8.12926 14.4656L6.00794 12.3443ZM29.3242 13.4519C29.91 14.0377 30.8598 14.0377 31.4456 13.4519C32.0314 12.8661 32.0314 11.9163 31.4456 11.3306L29.3242 13.4519ZM8.12926 14.4656C14.7012 7.89365 23.8872 8.01481 29.3242 13.4519L31.4456 11.3306C24.7176 4.60259 13.6285 4.72374 6.00794 12.3443L8.12926 14.4656Z" fill="#595959"/>
<path d="M11.0768 16.399C10.491 16.9847 10.491 17.9345 11.0768 18.5203C11.6626 19.1061 12.6123 19.1061 13.1981 18.5203L11.0768 16.399ZM25.13 18.3596C25.627 19.0224 26.5672 19.1567 27.23 18.6596C27.8927 18.1626 28.027 17.2224 27.53 16.5596L25.13 18.3596ZM13.1981 18.5203C15.4759 16.2424 17.8654 15.4336 19.9191 15.5363C21.9871 15.6397 23.8639 16.6715 25.13 18.3596L27.53 16.5596C25.7548 14.1927 23.0698 12.6901 20.0689 12.5401C17.0539 12.3893 13.8677 13.608 11.0768 16.399L13.1981 18.5203Z" fill="#595959"/>
</svg>
