<svg width="29" height="28" viewBox="0 0 29 28" fill="none" xmlns="http://www.w3.org/2000/svg">
<circle cx="14.5" cy="7.5" r="7" stroke="#595959"/>
<path fill-rule="evenodd" clip-rule="evenodd" d="M20.7906 8.13794C20.6896 9.17455 20.3452 10.1398 19.8151 10.9758C22.2412 11.7169 24.3532 12.999 25.84 14.6981C26.3855 15.3216 27.3331 15.3848 27.9566 14.8393C28.58 14.2937 28.6432 13.3461 28.0977 12.7226C26.2177 10.5741 23.6502 9.02769 20.7906 8.13794ZM10.499 12.7578C11.5718 13.539 12.8928 14 14.3215 14C16.0016 14 17.5327 13.3626 18.6864 12.3165C20.9667 12.8904 23.0951 14.0646 24.8548 15.8244C25.4406 16.4102 25.4406 17.3599 24.8548 17.9457C24.2691 18.5315 23.3193 18.5315 22.7335 17.9457C18.617 13.8292 11.6319 13.708 6.60056 18.7394C6.01477 19.3252 5.06503 19.3252 4.47924 18.7394C3.89345 18.1536 3.89345 17.2038 4.47924 16.6181C6.29179 14.8055 8.35392 13.5225 10.499 12.7578ZM9.02109 11.2632C8.4453 10.4537 8.05033 9.50665 7.89507 8.48092C5.16053 9.48822 2.58542 11.1353 0.456605 13.5006C-0.0975837 14.1164 -0.047666 15.0648 0.568099 15.619C1.18386 16.1732 2.1323 16.1233 2.68649 15.5075C4.4847 13.5095 6.67643 12.1124 9.02109 11.2632ZM15.3612 27.5396C16.4553 27.5396 17.3853 26.8368 17.7242 25.858L17.7907 25.9671L17.7378 25.8176C17.8179 25.5727 17.8612 25.3112 17.8612 25.0396C17.8612 24.231 17.4773 23.5121 16.8819 23.0552L16.4113 22.4113L18.6434 22.283L18.9031 21.7268L17.4185 21.0865L16.1242 21.0214C15.8877 20.952 15.7668 20.6492 15.6848 20.2707C15.5058 19.9935 15.2794 19.8117 15.0303 19.6754C15.2186 19.6644 15.4034 19.6638 15.5841 19.6729C17.1018 19.7488 18.4834 20.5054 19.4194 21.7534C19.9165 22.4161 20.8567 22.5504 21.5194 22.0534C22.1821 21.5563 22.3165 20.6161 21.8194 19.9534C20.3744 18.0267 18.1845 16.7992 15.7339 16.6766C14.6445 16.6222 13.5323 16.7868 12.4369 17.1811L12.4181 17.1501L12.4267 17.1848C11.0473 17.6831 9.69469 18.5455 8.44744 19.7927C7.86165 20.3785 7.86165 21.3282 8.44744 21.914C9.03323 22.4998 9.98297 22.4998 10.5688 21.914C11.7373 20.7455 12.9318 20.098 14.0477 19.8246L15.7175 22.5648C15.6012 22.5482 15.4822 22.5396 15.3612 22.5396C13.9805 22.5396 12.8612 23.6589 12.8612 25.0396C12.8612 26.4203 13.9805 27.5396 15.3612 27.5396Z" fill="#595959"/>
<path d="M11 7.33333L13.8 10L18 6" stroke="#595959" stroke-width="2" stroke-linecap="round" stroke-linejoin="round"/>
</svg>
