<svg width="64" height="64" viewBox="0 0 64 64" fill="none" xmlns="http://www.w3.org/2000/svg">
<path d="M24 53.3334L9.47467 46.0693C9.03178 45.848 8.65926 45.5078 8.39881 45.0868C8.13836 44.6657 8.00026 44.1805 8 43.6854V14.9814C8.00024 14.527 8.11658 14.0802 8.33798 13.6834C8.55938 13.2866 8.8785 12.953 9.26505 12.7142C9.6516 12.4753 10.0928 12.3393 10.5467 12.3188C11.0006 12.2984 11.4522 12.3942 11.8587 12.5974L24 18.6667M24 53.3334V18.6667M24 53.3334L40 45.3334M24 18.6667L40 10.6667M40 45.3334L52.1413 51.4027C52.5478 51.6058 52.9994 51.7017 53.4533 51.6812C53.9072 51.6608 54.3484 51.5247 54.735 51.2859C55.1215 51.047 55.4406 50.7134 55.662 50.3166C55.8834 49.9198 55.9998 49.4731 56 49.0187V20.3147C55.9997 19.8196 55.8616 19.3343 55.6012 18.9133C55.3407 18.4922 54.9682 18.152 54.5253 17.9307L40 10.6667M40 45.3334V10.6667" stroke="#A5CA3C" stroke-width="3.5" stroke-linecap="round" stroke-linejoin="round"/>
</svg>
