<svg width="64" height="64" viewBox="0 0 64 64" fill="none" xmlns="http://www.w3.org/2000/svg">
<g clip-path="url(#clip0)">
<path d="M18.9567 27.7667L18.9544 27.8074C18.7967 30.5693 20.3438 33.1566 22.8968 34.3971L22.923 34.4099C23.823 34.8404 24.5608 35.5502 25.0262 36.4328L25.0367 36.452C26.3231 38.9015 28.9837 40.3863 31.8201 40.2373L31.8631 40.235C32.8918 40.1774 33.9129 40.4427 34.7832 40.9943C37.185 42.4965 40.2337 42.4965 42.6354 40.9943C43.5058 40.4427 44.5269 40.1774 45.5555 40.235L45.5986 40.2373C48.4303 40.3874 51.0944 38.9015 52.3837 36.448L52.3901 36.4346C52.8573 35.5496 53.5968 34.8387 54.4998 34.4075L54.5207 34.3971C57.0737 33.1561 58.6214 30.5693 58.4631 27.8069L58.4608 27.7685C58.4084 26.7957 58.6784 25.8328 59.2299 25.0293C60.8177 22.7136 60.8177 19.6603 59.2305 17.3441C58.6795 16.5412 58.4084 15.5789 58.4608 14.6061L58.4631 14.5653C58.6214 11.8029 57.0737 9.21614 54.5184 7.97454L54.4951 7.96291C53.5968 7.53353 52.8608 6.82721 52.3948 5.94692L52.3814 5.92074C51.0944 3.4713 48.4303 1.98709 45.5986 2.13546L45.555 2.13778C44.5269 2.19538 43.5058 1.93007 42.636 1.37851H42.6348C40.2331 -0.12373 37.1844 -0.12373 34.7827 1.37851C33.9123 1.92949 32.8912 2.1948 31.8625 2.1372L31.8195 2.13487C28.9872 1.98477 26.3237 3.47072 25.0373 5.91958L25.0274 5.93761C24.5613 6.82197 23.823 7.53237 22.9218 7.96349L22.8974 7.97513C20.3443 9.21555 18.7967 11.8029 18.955 14.5653L18.9573 14.6037C19.0097 15.5765 18.7397 16.5394 18.1881 17.3423C16.6004 19.6585 16.6004 22.7125 18.1881 25.0281C18.7391 25.831 19.0097 26.7939 18.9567 27.7667ZM20.1494 18.6956C21.0006 17.4564 21.4178 15.9704 21.3363 14.4693L21.334 14.4286C21.2502 12.5982 22.2777 10.8982 23.9365 10.1203L23.9568 10.1104C25.3177 9.45875 26.4319 8.38589 27.1347 7.0512L27.1463 7.0291C28.001 5.40118 29.7913 4.41442 31.6926 4.51566L31.7345 4.5174C33.256 4.60293 34.7658 4.21079 36.0528 3.39508C37.6778 2.37865 39.7397 2.37865 41.3647 3.39508C42.6517 4.20962 44.1615 4.60235 45.6824 4.51798L45.7243 4.51566C47.635 4.41559 49.4165 5.40118 50.2688 7.02444L50.2845 7.05411C50.9874 8.38705 52.1004 9.45817 53.4595 10.1092L53.4793 10.1191C55.1642 10.9383 56.187 12.6296 56.0841 14.4292L56.0817 14.4717C56.0003 15.9727 56.418 17.4581 57.2692 18.6974C58.2979 20.1979 58.2973 22.1761 57.2681 23.676C56.4174 24.9158 56.0003 26.4018 56.0817 27.9029L56.0841 27.943C56.187 29.7425 55.1642 31.4345 53.4787 32.2542L53.4612 32.2624C52.0992 32.9152 50.9839 33.9892 50.2805 35.3262L50.2717 35.3437C49.4165 36.9716 47.6291 37.9589 45.7249 37.8571L45.6835 37.8548C44.1621 37.7698 42.6517 38.1626 41.3642 38.9777C39.7397 39.9935 37.6778 39.9935 36.0533 38.9777C34.8827 38.2359 33.5248 37.8426 32.1389 37.8437C32.0045 37.8437 31.8695 37.8472 31.7345 37.8548L31.6926 37.8565C29.8163 37.9758 28.0412 36.9937 27.1446 35.3408L27.1324 35.3181C26.4307 33.9857 25.3183 32.9152 23.9597 32.2641L23.9376 32.2531C22.2521 31.4339 21.2293 29.742 21.3329 27.943L21.3352 27.9005C21.4161 26.3994 20.9983 24.9135 20.1477 23.6748C19.1196 22.1743 19.1202 20.1961 20.1494 18.6968V18.6956Z" fill="#A5CA3C" stroke="#A5CA3C"/>
<path d="M31.0206 33.5046C31.5786 33.8531 32.3134 33.6826 32.6619 33.1247L46.7773 10.5119C47.0077 10.1505 47.0269 9.69324 46.8268 9.31448C46.6266 8.93514 46.238 8.6931 45.8098 8.67972C45.3816 8.66634 44.9789 8.88394 44.7555 9.2499L30.6407 31.8627C30.2922 32.4212 30.4621 33.1561 31.0206 33.5046Z" fill="#A5CA3C" stroke="#A5CA3C"/>
<path d="M32.2854 21.2452C35.1869 21.2452 37.5479 18.5531 37.5479 15.2443C37.5479 11.9356 35.1869 9.24408 32.2854 9.24408C29.3839 9.24408 27.0234 11.9356 27.0234 15.2443C27.0234 18.5531 29.3839 21.2452 32.2854 21.2452ZM32.2854 11.6272C33.8731 11.6272 35.1648 13.2499 35.1648 15.2443C35.1648 17.2388 33.8731 18.8621 32.2854 18.8621C30.6982 18.8621 29.4066 17.2382 29.4066 15.2443C29.4066 13.2505 30.6982 11.6272 32.2854 11.6272Z" fill="#A5CA3C" stroke="#A5CA3C"/>
<path d="M39.8699 27.1296C39.8699 30.4384 42.2303 33.1298 45.1318 33.1298C48.0333 33.1298 50.3943 30.4378 50.3943 27.1296C50.3943 23.822 48.0339 21.1293 45.1324 21.1293C42.2303 21.1293 39.8699 23.8202 39.8699 27.1296ZM48.0112 27.1296C48.0112 29.1241 46.7196 30.7467 45.1318 30.7467C43.5446 30.7467 42.253 29.1241 42.253 27.1296C42.253 25.1351 43.5446 23.5124 45.1318 23.5124C46.7196 23.5124 48.0112 25.134 48.0112 27.1296Z" fill="#A5CA3C" stroke="#A5CA3C"/>
<path d="M63.8455 46.9159C62.2676 44.1157 58.7686 43.0492 55.8974 44.4933L46.5633 48.9034C45.2746 46.5069 42.8025 44.9814 40.0819 44.9046L31.4652 44.6672C30.1009 44.6283 28.7621 44.2821 27.549 43.656L26.6722 43.2016C22.183 40.8616 16.832 40.8674 12.3474 43.2168L12.4021 41.2305C12.4201 40.5724 11.9017 40.0244 11.2437 40.0063L1.79502 39.7462C1.13698 39.7282 0.589497 40.2466 0.571461 40.9046L0.000700866 61.6399C-0.0173355 62.298 0.501061 62.846 1.15909 62.8641L10.6078 63.1241H10.6409C11.2862 63.1236 11.8139 62.6098 11.8319 61.9652L11.8587 60.9732L14.3133 59.6589C15.2768 59.1405 16.4038 59.0171 17.4563 59.315L32.1139 63.429C32.1395 63.4366 32.1651 63.4424 32.1913 63.4482C33.2508 63.6699 34.3307 63.781 35.4134 63.7804C37.7058 63.7816 39.9713 63.2876 42.0548 62.3311C42.106 62.3079 42.1555 62.2811 42.2026 62.2508L63.4551 48.5031C63.9852 48.161 64.1562 47.4646 63.8455 46.9159ZM2.41581 60.5141L2.92083 42.1619L9.98755 42.3563L9.48195 60.709L2.41581 60.5141ZM40.9808 60.2017C38.3923 61.37 35.5013 61.6923 32.719 61.1233L18.1004 57.0209C16.4556 56.5555 14.6938 56.7486 13.1887 57.5579L11.9343 58.2293L12.2706 46.0269C16.245 43.3832 21.3428 43.1115 25.5761 45.3171L26.4529 45.7715C27.9854 46.5628 29.6761 46.9997 31.4001 47.0492L40.0167 47.2866C42.4371 47.3558 44.4926 49.0791 44.9837 51.4506L32.1489 51.0975C31.4908 51.0794 30.9433 51.5978 30.9253 52.2558C30.9073 52.9139 31.4257 53.4619 32.0837 53.48L46.248 53.8698H46.2817C46.9264 53.8692 47.4541 53.3555 47.4721 52.7108C47.4866 52.193 47.4477 51.6746 47.3569 51.1649L56.9289 46.6413L56.9568 46.628C58.3148 45.9402 59.9573 46.1701 61.0738 47.2039L40.9808 60.2017Z" fill="#A5CA3C" stroke="#A5CA3C"/>
</g>
<defs>
<clipPath id="clip0">
<rect width="64" height="64" fill="white"/>
</clipPath>
</defs>
</svg>
