<svg width="33" height="32" viewBox="0 0 33 32" fill="none" xmlns="http://www.w3.org/2000/svg">
<path d="M20.0197 11.72L14.2997 17.4533L12.0997 15.2533C11.9802 15.1137 11.8331 15.0004 11.6677 14.9203C11.5022 14.8403 11.3221 14.7953 11.1384 14.7882C10.9548 14.7811 10.7717 14.8121 10.6006 14.8791C10.4295 14.9461 10.2741 15.0478 10.1442 15.1778C10.0142 15.3077 9.91255 15.4631 9.84552 15.6342C9.77848 15.8053 9.74754 15.9884 9.75463 16.172C9.76173 16.3557 9.8067 16.5358 9.88673 16.7013C9.96676 16.8667 10.0801 17.0138 10.2197 17.1333L13.353 20.28C13.4776 20.4035 13.6254 20.5013 13.7878 20.5677C13.9503 20.634 14.1242 20.6676 14.2997 20.6666C14.6495 20.6652 14.9847 20.5263 15.233 20.28L21.8997 13.6133C22.0247 13.4893 22.1239 13.3419 22.1916 13.1794C22.2592 13.0169 22.2941 12.8426 22.2941 12.6666C22.2941 12.4906 22.2592 12.3163 22.1916 12.1539C22.1239 11.9914 22.0247 11.8439 21.8997 11.72C21.6499 11.4716 21.3119 11.3322 20.9597 11.3322C20.6075 11.3322 20.2695 11.4716 20.0197 11.72ZM16.393 2.66663C13.7559 2.66663 11.1781 3.44861 8.98543 4.9137C6.79277 6.37878 5.08381 8.46116 4.07464 10.8975C3.06547 13.3339 2.80143 16.0148 3.31589 18.6012C3.83036 21.1876 5.10024 23.5634 6.96494 25.4281C8.82964 27.2928 11.2054 28.5626 13.7918 29.0771C16.3782 29.5916 19.0591 29.3275 21.4955 28.3184C23.9318 27.3092 26.0142 25.6002 27.4793 23.4076C28.9444 21.2149 29.7264 18.637 29.7264 16C29.7264 14.249 29.3815 12.5152 28.7114 10.8975C28.0414 9.27984 27.0592 7.80998 25.8211 6.57187C24.583 5.33375 23.1132 4.35163 21.4955 3.68157C19.8778 3.0115 18.144 2.66663 16.393 2.66663ZM16.393 26.6666C14.2834 26.6666 12.2211 26.041 10.4669 24.869C8.71282 23.6969 7.34565 22.031 6.53832 20.0819C5.73098 18.1328 5.51975 15.9881 5.93132 13.919C6.3429 11.8499 7.3588 9.94925 8.85056 8.45749C10.3423 6.96573 12.2429 5.94983 14.3121 5.53825C16.3812 5.12667 18.5259 5.33791 20.475 6.14524C22.4241 6.95258 24.09 8.31975 25.262 10.0739C26.4341 11.828 27.0597 13.8903 27.0597 16C27.0597 18.8289 25.9359 21.542 23.9355 23.5424C21.9351 25.5428 19.222 26.6666 16.393 26.6666Z" fill="#595959"/>
</svg>
