<svg width="14" height="14" viewBox="0 0 14 14" fill="none" xmlns="http://www.w3.org/2000/svg">
<path d="M11.1838 0.757148L11.1847 0.758088L12.9928 2.5645C12.993 2.56469 12.9932 2.56487 12.9934 2.56505C13.3874 2.9621 13.5668 3.52303 13.4778 4.06416C13.1144 6.24684 11.9535 8.42429 10.1874 10.1888C8.41891 11.9556 6.23956 13.1178 4.06438 13.4761L4.06438 13.476L4.05996 13.4768C3.9718 13.4921 3.88156 13.5 3.78544 13.5C3.32952 13.5 2.88474 13.3161 2.56471 12.9947L2.56399 12.994L0.757923 11.188C0.591324 11.0214 0.500001 10.8018 0.500001 10.5663L0.500001 10.5657C0.499866 10.4504 0.522526 10.3362 0.566675 10.2298L0.10738 10.0393L0.566676 10.2298C0.610826 10.1233 0.675595 10.0266 0.757255 9.94524L0.757615 9.94488L2.7064 7.99949L2.70671 7.99918C2.87331 7.83259 3.0929 7.74126 3.3284 7.74126H3.32852C3.44356 7.74123 3.55748 7.76394 3.66372 7.80807C3.76997 7.8522 3.86645 7.91688 3.94761 7.99841L3.94839 7.99918L5.37218 9.42297L5.61758 9.66838L5.93332 9.52429C6.72244 9.16416 7.44017 8.66472 8.05208 8.04993C8.66554 7.4378 9.1633 6.71981 9.52135 5.93061L9.6644 5.6153L9.41957 5.37048L7.99579 3.94669C7.82919 3.78009 7.73786 3.56049 7.73786 3.325V3.32488C7.73784 3.20984 7.76054 3.09592 7.80467 2.98968C7.8488 2.88343 7.91348 2.78695 7.99501 2.70579L7.99579 2.70501L9.94287 0.757922L9.58932 0.404369L9.94288 0.757922C10.1095 0.591324 10.3291 0.5 10.5646 0.5L10.5647 0.5C10.6797 0.499972 10.7936 0.522675 10.8999 0.566805C11.0061 0.610933 11.1026 0.675619 11.1838 0.757148Z" stroke="white"/>
</svg>
