<svg width="64" height="66" viewBox="0 0 64 66" fill="none" xmlns="http://www.w3.org/2000/svg">
<path d="M32 37.2064C29.3415 37.2064 27.1786 39.3692 27.1786 42.0279C27.1786 44.2524 28.6932 46.1287 30.745 46.6825V53.6169C30.745 54.3099 31.307 54.8717 31.9998 54.8717C32.6928 54.8717 33.2547 54.3097 33.2547 53.6169V46.6825C35.3065 46.1287 36.8211 44.2522 36.8211 42.0279C36.8213 39.3692 34.6585 37.2064 32 37.2064ZM32 44.3392C30.7253 44.3392 29.6885 43.3024 29.6885 42.0277C29.6885 40.7531 30.7253 39.7161 32 39.7161C33.2746 39.7161 34.3115 40.7531 34.3115 42.0277C34.3115 43.3024 33.2746 44.3392 32 44.3392Z" fill="#A5CA3C" stroke="#A5CA3C"/>
<path d="M49.3602 23.7213H46.5455V15.1276C46.5455 7.33763 40.2079 1 32.4179 1C24.6279 1 18.2902 7.33763 18.2902 15.1276V23.7211H15.4755C11.3535 23.7211 8 27.0741 8 31.1955V57.5246C8 61.6467 11.3536 65.0001 15.4755 65.0001H49.3604C53.4824 65.0001 56.8359 61.6466 56.8359 57.5246V31.1955C56.8357 27.0741 53.4821 23.7213 49.3602 23.7213ZM20.8 15.1276C20.8 8.7215 26.0117 3.50975 32.4179 3.50975C38.824 3.50975 44.0357 8.7215 44.0357 15.1276V23.7211H40.4969V15.1276C40.4969 10.6721 36.8726 7.04725 32.4179 7.04725C27.9631 7.04725 24.3389 10.672 24.3389 15.1276V23.7211H20.8V15.1276ZM37.9871 15.1276V23.7211H26.8486V15.1276C26.8486 12.056 29.347 9.55713 32.4179 9.55713C35.4887 9.55713 37.9871 12.056 37.9871 15.1276ZM54.326 57.5245C54.326 60.2626 52.0984 62.4901 49.3604 62.4901H15.4755C12.7374 62.4901 10.5099 60.2625 10.5099 57.5245V31.1955C10.5099 28.4583 12.7375 26.231 15.4755 26.231H19.5451H25.5937H39.2421H45.2907H49.3604C52.0985 26.231 54.326 28.4581 54.326 31.1955V57.5245Z" fill="#A5CA3C" stroke="#A5CA3C"/>
<path d="M50.9464 35.8752C50.2534 35.8752 49.6915 36.4372 49.6915 37.1301V48.1935C49.6915 48.8865 50.2535 49.4484 50.9464 49.4484C51.6393 49.4484 52.2013 48.8864 52.2013 48.1935V37.1301C52.2013 36.4371 51.6394 35.8752 50.9464 35.8752Z" fill="#A5CA3C" stroke="#A5CA3C"/>
<path d="M50.9167 31.7346C49.3018 31.7346 49.299 34.2444 50.9167 34.2444C52.5317 34.2445 52.5344 31.7346 50.9167 31.7346Z" fill="#A5CA3C" stroke="#A5CA3C"/>
</svg>
