<svg width="84" height="84" viewBox="0 0 84 84" fill="none" xmlns="http://www.w3.org/2000/svg">
<path d="M60.5724 32.3637L54.4007 38.5354L50.4489 34.5836C49.488 33.6227 47.9297 33.6227 46.9686 34.5836C46.0075 35.5445 46.0075 37.1028 46.9686 38.0638L52.6604 43.7557C53.6215 44.7167 55.1796 44.7167 56.1407 43.7557L64.0526 35.8437C65.0137 34.8828 65.0137 33.3246 64.0526 32.3635C63.0917 31.4027 61.5334 31.4027 60.5724 32.3637Z" fill="#A5CA3C"/>
<path d="M37.2504 17.887C37.2186 17.8858 37.1874 17.8822 37.1552 17.8822H19.7459C18.3868 17.8822 17.285 18.9841 17.285 20.3431C17.285 21.7022 18.3868 22.8041 19.7459 22.8041H31.8834C27.8937 27.4695 25.4138 33.3192 24.903 39.5549H10.623C9.26395 39.5549 8.16211 40.6567 8.16211 42.0158C8.16211 43.3749 9.26395 44.4767 10.623 44.4767H24.9029C25.4125 50.7024 27.8859 56.5552 31.8836 61.2275H2.46094C1.10184 61.2275 0 62.3294 0 63.6885C0 65.0475 1.10184 66.1494 2.46094 66.1494C2.78365 66.1494 37.0535 66.152 37.2501 66.1446C42.2271 69.6953 48.1843 71.6153 54.4007 71.6153C70.8584 71.615 84 58.2491 84 42.0156C84 17.8753 56.6608 4.04698 37.2504 17.887ZM54.4007 66.6931C40.8724 66.6931 29.7234 55.7677 29.7234 42.0156C29.7234 35.1828 32.4547 28.8257 37.4145 24.1158C53.0311 9.27844 79.0781 20.3116 79.0781 42.0156C79.0781 55.5908 68.0853 66.6931 54.4007 66.6931Z" fill="#A5CA3C"/>
<path d="M54.4005 28.7004C55.9112 28.7004 57.1358 27.4757 57.1358 25.9651C57.1358 24.4545 55.9112 23.2299 54.4005 23.2299C52.8899 23.2299 51.6653 24.4545 51.6653 25.9651C51.6653 27.4757 52.8899 28.7004 54.4005 28.7004Z" fill="#A5CA3C"/>
<path d="M54.4006 60.8013C55.9112 60.8013 57.1357 59.5767 57.1357 58.0662C57.1357 56.5557 55.9112 55.3311 54.4006 55.3311C52.8901 55.3311 51.6655 56.5557 51.6655 58.0662C51.6655 59.5767 52.8901 60.8013 54.4006 60.8013Z" fill="#A5CA3C"/>
<path d="M70.3603 39.1893C68.8498 39.1893 67.6252 40.4139 67.6252 41.9246C67.6252 43.4351 68.8498 44.6596 70.3603 44.6596C71.871 44.6596 73.0956 43.4351 73.0956 41.9246C73.0954 40.4139 71.8709 39.1893 70.3603 39.1893Z" fill="#A5CA3C"/>
<path d="M38.6856 44.6272C40.1765 44.3855 41.1892 42.9809 40.9475 41.49C40.7058 39.9991 39.3013 38.9864 37.8104 39.2281C36.3195 39.4698 35.3068 40.8743 35.5485 42.3652C35.7901 43.8562 37.1947 44.8689 38.6856 44.6272Z" fill="#A5CA3C"/>
</svg>
