<svg width="11" height="17" viewBox="0 0 11 17" fill="none" xmlns="http://www.w3.org/2000/svg">
<path d="M5.37774 15L4.98789 15.3131L5.37777 15.7986L5.76761 15.313L5.37774 15ZM5.37774 15C5.76761 15.313 5.76768 15.313 5.76777 15.3128L5.76804 15.3125L5.76887 15.3115L5.77171 15.3079L5.78203 15.2949L5.82059 15.246C5.85397 15.2033 5.90239 15.1409 5.96368 15.0604C6.08624 14.8994 6.26044 14.6658 6.46906 14.3728C6.88596 13.7873 7.44216 12.9619 7.99903 12.0026C9.09928 10.1072 10.2555 7.60034 10.2555 5.36898C10.2555 2.67515 8.07097 0.5 5.37774 0.5C2.68457 0.5 0.5 2.67421 0.5 5.36898C0.5 7.60077 1.65618 10.1076 2.75645 12.003C3.31332 12.9622 3.86952 13.7875 4.28642 14.373C4.49505 14.666 4.66925 14.8995 4.79181 15.0605C4.85311 15.141 4.90152 15.2034 4.93491 15.246L4.97346 15.295L4.98379 15.308L4.98663 15.3115L4.98746 15.3125L4.98772 15.3129C4.98781 15.313 4.98789 15.3131 5.37774 15ZM5.37774 7.28637C4.88338 7.28637 4.40927 7.08998 4.05971 6.74042C3.71014 6.39086 3.51376 5.91675 3.51376 5.42239C3.51376 4.92803 3.71014 4.45392 4.05971 4.10436C4.40927 3.75479 4.88338 3.55841 5.37774 3.55841C5.87209 3.55841 6.3462 3.75479 6.69577 4.10436C7.04533 4.45392 7.24171 4.92803 7.24171 5.42239C7.24171 5.91675 7.04533 6.39086 6.69577 6.74042C6.3462 7.08998 5.87209 7.28637 5.37774 7.28637Z" stroke="white"/>
</svg>
