<svg width="16" height="17" viewBox="0 0 16 17" fill="none" xmlns="http://www.w3.org/2000/svg">
<path d="M13.6 3.212H9.6C9.38782 3.212 9.18434 3.29628 9.03431 3.44631C8.88428 3.59634 8.8 3.79983 8.8 4.012C8.8 4.22417 8.88428 4.42765 9.03431 4.57768C9.18434 4.72771 9.38782 4.812 9.6 4.812H13.6C13.8122 4.812 14.0157 4.89628 14.1657 5.04631C14.3157 5.19634 14.4 5.39983 14.4 5.612V13.388L13.144 12.228C12.9965 12.0899 12.8021 12.0127 12.6 12.012H5.6C5.38783 12.012 5.18434 11.9277 5.03431 11.7777C4.88428 11.6277 4.8 11.4242 4.8 11.212V9.612C4.8 9.39982 4.71571 9.19634 4.56568 9.04631C4.41566 8.89628 4.21217 8.812 4 8.812C3.78783 8.812 3.58434 8.89628 3.43431 9.04631C3.28428 9.19634 3.2 9.39982 3.2 9.612V11.212C3.2 11.8485 3.45286 12.459 3.90294 12.9091C4.35303 13.3591 4.96348 13.612 5.6 13.612H12.288L14.688 15.796C14.8274 15.9269 15.009 16.0035 15.2 16.012C15.3097 16.0108 15.4183 15.9891 15.52 15.948C15.6631 15.8855 15.7848 15.7826 15.8701 15.6518C15.9554 15.521 16.0005 15.3681 16 15.212V5.612C16 4.97548 15.7471 4.36503 15.2971 3.91494C14.847 3.46486 14.2365 3.212 13.6 3.212ZM5.256 6.412L6.632 7.796C6.70637 7.87098 6.79485 7.9305 6.89234 7.97111C6.98982 8.01173 7.09439 8.03264 7.2 8.03264C7.30561 8.03264 7.41017 8.01173 7.50766 7.97111C7.60515 7.9305 7.69363 7.87098 7.768 7.796C7.84298 7.72163 7.9025 7.63315 7.94311 7.53566C7.98373 7.43817 8.00464 7.33361 8.00464 7.228C8.00464 7.12239 7.98373 7.01782 7.94311 6.92034C7.9025 6.82285 7.84298 6.73437 7.768 6.66L6.4 5.268C6.73528 4.72417 6.91512 4.09886 6.92 3.46C6.92 2.54235 6.55546 1.66229 5.90659 1.01341C5.25771 0.364535 4.37765 0 3.46 0C2.54235 0 1.66229 0.364535 1.01341 1.01341C0.364535 1.66229 0 2.54235 0 3.46C-2.45199e-06 4.3752 0.363012 5.25304 1.00941 5.90093C1.6558 6.54883 2.5328 6.91388 3.448 6.916C4.08545 6.91676 4.71087 6.74242 5.256 6.412ZM1.6 3.46C1.59984 3.21745 1.64785 2.97729 1.74123 2.75344C1.83461 2.5296 1.97152 2.32652 2.144 2.156C2.31688 1.97893 2.52343 1.83822 2.75149 1.74215C2.97956 1.64608 3.22453 1.59659 3.472 1.59659C3.71947 1.59659 3.96444 1.64608 4.19251 1.74215C4.42057 1.83822 4.62712 1.97893 4.8 2.156C4.97806 2.32831 5.11965 2.53468 5.21635 2.76282C5.31305 2.99096 5.36288 3.23621 5.36288 3.484C5.36288 3.73179 5.31305 3.97704 5.21635 4.20518C5.11965 4.43332 4.97806 4.63969 4.8 4.812C4.54004 5.08558 4.20287 5.27341 3.83343 5.35045C3.46399 5.42749 3.07984 5.39007 2.73221 5.2432C2.38457 5.09632 2.08997 4.84697 1.88769 4.52837C1.68541 4.20978 1.58505 3.83709 1.6 3.46Z" fill="white"/>
</svg>
