<svg width="24" height="24" viewBox="0 0 24 24" fill="none" xmlns="http://www.w3.org/2000/svg">
<path d="M12.0002 0C6.83887 0 2.65503 4.18409 2.65503 9.34513C2.65503 17.1618 12.0002 24 12.0002 24C12.0002 24 21.3451 17.3192 21.3451 9.34513C21.3451 4.18409 17.1614 0 12.0002 0ZM12.0002 16.151C8.19641 16.151 5.113 13.0675 5.113 9.26384C5.113 5.46017 8.19632 2.3766 12.0002 2.3766C15.8038 2.3766 18.8871 5.46008 18.8871 9.26384C18.8871 13.0674 15.8038 16.151 12.0002 16.151Z" fill="#A5CA3C"/>
<path d="M9.11928 9.01004C8.86423 9.26501 8.86423 9.6784 9.1192 9.93337C9.37425 10.1884 9.78764 10.1884 10.0425 9.93346C11.1219 8.85432 12.8779 8.85399 13.9571 9.93346C14.0847 10.0609 14.2517 10.1247 14.4188 10.1247C14.586 10.1247 14.753 10.0609 14.8805 9.93346C15.1355 9.6784 15.1355 9.2651 14.8805 9.01004C13.2921 7.42178 10.7076 7.42178 9.11928 9.01004Z" fill="#A5CA3C"/>
<path d="M16.7537 7.13698C15.4839 5.8671 13.7957 5.16772 12 5.16772C10.2043 5.16772 8.51595 5.8671 7.24616 7.13689C6.99119 7.39195 6.99119 7.80525 7.24616 8.06031C7.50121 8.3152 7.91452 8.3152 8.16957 8.06031C9.19272 7.03708 10.553 6.47359 12 6.47359C13.4468 6.47359 14.8072 7.03708 15.8303 8.06023C15.9579 8.18779 16.1248 8.25154 16.292 8.25154C16.4591 8.25154 16.6262 8.18779 16.7536 8.06031C17.0087 7.80542 17.0087 7.39195 16.7537 7.13698Z" fill="#A5CA3C"/>
<path d="M12.0002 12.8701C12.5411 12.8701 12.9796 12.4316 12.9796 11.8907C12.9796 11.3497 12.5411 10.9113 12.0002 10.9113C11.4592 10.9113 11.0208 11.3497 11.0208 11.8907C11.0208 12.4316 11.4592 12.8701 12.0002 12.8701Z" fill="#A5CA3C"/>
</svg>
