<svg width="1398" height="451" viewBox="0 0 1398 451" fill="none" xmlns="http://www.w3.org/2000/svg">
<circle cx="1389.02" cy="342" r="15.5" fill="#FBF1DE" stroke="#E2E09F"/>
<path fill-rule="evenodd" clip-rule="evenodd" d="M1379.33 339.855C1382.03 336.86 1385.78 335.5 1389.41 335.5C1393.05 335.5 1396.47 336.868 1398.53 339.212C1398.8 339.524 1399.27 339.556 1399.58 339.283C1399.9 339.01 1399.93 338.536 1399.65 338.224C1397.26 335.489 1393.39 334 1389.41 334C1385.42 334 1381.23 335.497 1378.22 338.852C1377.94 339.159 1377.96 339.634 1378.27 339.911C1378.58 340.188 1379.05 340.163 1379.33 339.855ZM1389.8 349.782C1390.91 349.782 1391.8 348.886 1391.8 347.782C1391.8 346.677 1390.91 345.782 1389.8 345.782C1388.7 345.782 1387.8 346.677 1387.8 347.782C1387.8 348.886 1388.7 349.782 1389.8 349.782ZM1396.02 341.788C1392.53 338.302 1386.66 338.241 1382.48 342.423C1382.18 342.716 1381.71 342.716 1381.42 342.423C1381.12 342.13 1381.12 341.656 1381.42 341.363C1386.12 336.656 1392.95 336.595 1397.08 340.728C1397.37 341.021 1397.37 341.495 1397.08 341.788C1396.79 342.081 1396.31 342.081 1396.02 341.788ZM1385.65 344.963C1387.11 343.504 1388.66 342.972 1390.01 343.039C1391.36 343.107 1392.59 343.783 1393.41 344.883C1393.66 345.214 1394.13 345.281 1394.46 345.033C1394.79 344.784 1394.86 344.314 1394.61 343.983C1393.53 342.543 1391.9 341.632 1390.08 341.541C1388.25 341.449 1386.31 342.187 1384.59 343.902C1384.3 344.195 1384.3 344.67 1384.59 344.963C1384.88 345.256 1385.36 345.256 1385.65 344.963Z" fill="#A5CA3C"/>
<circle cx="1189.02" cy="213" r="15.5" fill="#F0ECC5" stroke="#E2E09F"/>
<path fill-rule="evenodd" clip-rule="evenodd" d="M1179.33 210.855C1182.03 207.86 1185.78 206.5 1189.41 206.5C1193.05 206.5 1196.47 207.868 1198.53 210.212C1198.8 210.524 1199.27 210.556 1199.58 210.283C1199.9 210.01 1199.93 209.536 1199.65 209.224C1197.26 206.489 1193.39 205 1189.41 205C1185.42 205 1181.23 206.497 1178.22 209.852C1177.94 210.159 1177.96 210.634 1178.27 210.911C1178.58 211.188 1179.05 211.163 1179.33 210.855ZM1189.8 220.782C1190.91 220.782 1191.8 219.886 1191.8 218.782C1191.8 217.677 1190.91 216.782 1189.8 216.782C1188.7 216.782 1187.8 217.677 1187.8 218.782C1187.8 219.886 1188.7 220.782 1189.8 220.782ZM1196.02 212.788C1192.53 209.302 1186.66 209.241 1182.48 213.423C1182.18 213.716 1181.71 213.716 1181.42 213.423C1181.12 213.13 1181.12 212.656 1181.42 212.363C1186.12 207.656 1192.95 207.595 1197.08 211.728C1197.37 212.021 1197.37 212.495 1197.08 212.788C1196.79 213.081 1196.31 213.081 1196.02 212.788ZM1185.65 215.963C1187.11 214.504 1188.66 213.972 1190.01 214.039C1191.36 214.107 1192.59 214.783 1193.41 215.883C1193.66 216.214 1194.13 216.281 1194.46 216.033C1194.79 215.784 1194.86 215.314 1194.61 214.983C1193.53 213.543 1191.9 212.632 1190.08 212.541C1188.25 212.449 1186.31 213.187 1184.59 214.902C1184.3 215.195 1184.3 215.67 1184.59 215.963C1184.88 216.256 1185.36 216.256 1185.65 215.963Z" fill="#A5CA3C"/>
<circle cx="1318" cy="132" r="15.5" fill="#F4F1D6" stroke="#E2E09F"/>
<path fill-rule="evenodd" clip-rule="evenodd" d="M1308.31 129.855C1311 126.86 1314.76 125.5 1318.39 125.5C1322.03 125.5 1325.45 126.868 1327.5 129.212C1327.78 129.524 1328.25 129.556 1328.56 129.283C1328.87 129.01 1328.91 128.536 1328.63 128.224C1326.24 125.489 1322.36 124 1318.39 124C1314.39 124 1310.21 125.497 1307.19 128.852C1306.92 129.159 1306.94 129.634 1307.25 129.911C1307.56 130.188 1308.03 130.163 1308.31 129.855ZM1318.78 139.782C1319.89 139.782 1320.78 138.886 1320.78 137.782C1320.78 136.677 1319.89 135.782 1318.78 135.782C1317.68 135.782 1316.78 136.677 1316.78 137.782C1316.78 138.886 1317.68 139.782 1318.78 139.782ZM1325 131.788C1321.51 128.302 1315.64 128.241 1311.46 132.423C1311.16 132.716 1310.69 132.716 1310.39 132.423C1310.1 132.13 1310.1 131.656 1310.39 131.363C1315.1 126.656 1321.93 126.595 1326.06 130.728C1326.35 131.021 1326.35 131.495 1326.06 131.788C1325.77 132.081 1325.29 132.081 1325 131.788ZM1314.63 134.963C1316.09 133.504 1317.64 132.972 1318.98 133.039C1320.34 133.107 1321.56 133.783 1322.39 134.883C1322.64 135.214 1323.11 135.281 1323.44 135.033C1323.77 134.784 1323.84 134.314 1323.59 133.983C1322.51 132.543 1320.88 131.632 1319.06 131.541C1317.23 131.449 1315.28 132.187 1313.57 133.902C1313.28 134.195 1313.28 134.67 1313.57 134.963C1313.86 135.256 1314.34 135.256 1314.63 134.963Z" fill="#A5CA3C"/>
<circle cx="1239.02" cy="12" r="8.5" fill="#FBF1DE" stroke="#E2E09F"/>
<path fill-rule="evenodd" clip-rule="evenodd" d="M1233.81 11.0129C1235.26 9.40674 1237.28 8.67188 1239.24 8.67188C1241.21 8.67188 1243.04 9.41473 1244.12 10.6479C1244.39 10.9597 1244.87 10.9913 1245.18 10.7185C1245.49 10.4457 1245.52 9.97191 1245.25 9.66018C1243.83 8.03619 1241.55 7.17187 1239.24 7.17188C1236.91 7.17188 1234.47 8.04418 1232.7 10.0095C1232.42 10.3174 1232.45 10.7916 1232.76 11.0687C1233.06 11.3458 1233.54 11.3208 1233.81 11.0129ZM1239.46 16.3772C1240.08 16.3772 1240.59 15.8735 1240.59 15.2522C1240.59 14.6309 1240.08 14.1272 1239.46 14.1272C1238.84 14.1272 1238.34 14.6309 1238.34 15.2522C1238.34 15.8735 1238.84 16.3772 1239.46 16.3772ZM1242.73 12.113C1240.91 10.2928 1237.81 10.2322 1235.57 12.4701C1235.28 12.763 1234.81 12.763 1234.51 12.4701C1234.22 12.1772 1234.22 11.7024 1234.51 11.4095C1237.27 8.64728 1241.32 8.5867 1243.79 11.0523C1244.08 11.3452 1244.08 11.8201 1243.79 12.113C1243.49 12.4059 1243.02 12.4059 1242.73 12.113ZM1237.36 13.8987C1238.12 13.1341 1238.91 12.8795 1239.56 12.9121C1240.22 12.9451 1240.82 13.2738 1241.23 13.8184C1241.48 14.1498 1241.95 14.2169 1242.28 13.9684C1242.61 13.7199 1242.68 13.2498 1242.43 12.9184C1241.77 12.0344 1240.76 11.4703 1239.63 11.414C1238.5 11.3573 1237.32 11.8169 1236.3 12.8381C1236.01 13.131 1236.01 13.6058 1236.3 13.8987C1236.59 14.1916 1237.07 14.1916 1237.36 13.8987Z" fill="#DCE8AD"/>
<circle cx="1189.02" cy="431" r="19.5" fill="#F6E6BB" stroke="#E2E09F"/>
<path fill-rule="evenodd" clip-rule="evenodd" d="M1176.77 428.193C1180.18 424.405 1184.92 422.688 1189.5 422.688C1194.1 422.687 1198.44 424.413 1201.04 427.392C1201.32 427.704 1201.79 427.735 1202.1 427.462C1202.41 427.19 1202.44 426.716 1202.17 426.404C1199.22 423.034 1194.43 421.187 1189.5 421.188C1184.56 421.188 1179.39 423.042 1175.65 427.19C1175.38 427.498 1175.4 427.972 1175.71 428.249C1176.02 428.526 1176.49 428.501 1176.77 428.193ZM1190 440.727C1191.38 440.727 1192.5 439.608 1192.5 438.227C1192.5 436.846 1191.38 435.727 1190 435.727C1188.62 435.727 1187.5 436.846 1187.5 438.227C1187.5 439.608 1188.62 440.727 1190 440.727ZM1197.9 430.603C1193.46 426.164 1186 426.103 1180.71 431.397C1180.42 431.689 1179.94 431.689 1179.65 431.397C1179.36 431.104 1179.36 430.629 1179.65 430.336C1185.47 424.518 1193.88 424.458 1198.96 429.542C1199.26 429.835 1199.26 430.31 1198.96 430.603C1198.67 430.896 1198.2 430.896 1197.9 430.603ZM1184.68 434.571C1186.53 432.715 1188.52 432.024 1190.26 432.111C1192.01 432.199 1193.59 433.073 1194.66 434.491C1194.91 434.822 1195.38 434.889 1195.71 434.641C1196.04 434.392 1196.11 433.922 1195.86 433.591C1194.54 431.834 1192.55 430.724 1190.34 430.613C1188.11 430.502 1185.73 431.398 1183.62 433.511C1183.32 433.803 1183.32 434.278 1183.62 434.571C1183.91 434.864 1184.38 434.864 1184.68 434.571Z" fill="#A5CA3C"/>
<circle cx="63" cy="412" r="15.5" fill="#FAE7C2" stroke="#E2E09F"/>
<path fill-rule="evenodd" clip-rule="evenodd" d="M53.3075 409.855C56.0031 406.86 59.7574 405.5 63.3851 405.5C67.0259 405.5 70.4521 406.868 72.5034 409.212C72.7762 409.524 73.25 409.556 73.5617 409.283C73.8734 409.01 73.905 408.536 73.6323 408.224C71.239 405.489 67.3635 404 63.3851 404C59.3937 404 55.2113 405.497 52.1925 408.852C51.9154 409.159 51.9404 409.634 52.2483 409.911C52.5562 410.188 53.0304 410.163 53.3075 409.855ZM63.7817 419.782C64.8863 419.782 65.7817 418.886 65.7817 417.782C65.7817 416.677 64.8863 415.782 63.7817 415.782C62.6772 415.782 61.7817 416.677 61.7817 417.782C61.7817 418.886 62.6772 419.782 63.7817 419.782ZM69.9978 411.788C66.5109 408.302 60.6374 408.241 56.455 412.423C56.1621 412.716 55.6873 412.716 55.3944 412.423C55.1015 412.13 55.1015 411.656 55.3944 411.363C60.101 406.656 66.9261 406.595 71.0584 410.728C71.3513 411.021 71.3513 411.495 71.0584 411.788C70.7656 412.081 70.2907 412.081 69.9978 411.788ZM59.6296 414.963C61.0886 413.504 62.6355 412.972 63.9825 413.039C65.3366 413.107 66.5632 413.783 67.3883 414.883C67.6368 415.214 68.1069 415.281 68.4383 415.033C68.7697 414.784 68.8368 414.314 68.5883 413.983C67.5086 412.543 65.878 411.632 64.0574 411.541C62.2298 411.449 60.2845 412.187 58.5689 413.902C58.276 414.195 58.276 414.67 58.5689 414.963C58.8618 415.256 59.3367 415.256 59.6296 414.963Z" fill="#A5CA3C"/>
<circle cx="91" cy="106" r="11.5" fill="#FBE8C5" stroke="#E1DC93"/>
<path fill-rule="evenodd" clip-rule="evenodd" d="M83.87 104.517C85.8513 102.315 88.6135 101.313 91.2888 101.312C93.9773 101.312 96.4907 102.323 97.9864 104.033C98.2592 104.344 98.733 104.376 99.0447 104.103C99.3565 103.83 99.3881 103.357 99.1153 103.045C97.2776 100.945 94.3148 99.8125 91.2888 99.8125C88.2498 99.8125 85.0595 100.953 82.755 103.513C82.4779 103.821 82.5029 104.295 82.8108 104.572C83.1187 104.85 83.5929 104.825 83.87 104.517ZM91.5863 111.836C92.4147 111.836 93.0863 111.165 93.0863 110.336C93.0863 109.508 92.4147 108.836 91.5863 108.836C90.7579 108.836 90.0863 109.508 90.0863 110.336C90.0863 111.165 90.7579 111.836 91.5863 111.836ZM96.1158 105.974C93.5813 103.439 89.2951 103.379 86.2238 106.45C85.931 106.743 85.4561 106.743 85.1632 106.45C84.8703 106.157 84.8703 105.682 85.1632 105.389C88.7587 101.794 93.9965 101.733 97.1764 104.913C97.4693 105.206 97.4693 105.681 97.1764 105.974C96.8835 106.267 96.4087 106.267 96.1158 105.974ZM88.6048 108.355C89.667 107.293 90.7774 106.919 91.7275 106.966C92.6848 107.014 93.5542 107.492 94.1412 108.275C94.3897 108.606 94.8599 108.673 95.1912 108.425C95.5226 108.176 95.5897 107.706 95.3412 107.375C94.4997 106.252 93.2262 105.539 91.8024 105.468C90.3716 105.397 88.8629 105.975 87.5441 107.294C87.2512 107.587 87.2512 108.062 87.5441 108.355C87.837 108.648 88.3119 108.648 88.6048 108.355Z" fill="#A5CA3C"/>
<circle cx="235" cy="55" r="11.5" fill="#F6E9C3" stroke="#E2E09F"/>
<path fill-rule="evenodd" clip-rule="evenodd" d="M227.87 53.5167C229.851 51.3152 232.613 50.3125 235.289 50.3125C237.977 50.3125 240.491 51.3232 241.986 53.0326C242.259 53.3443 242.733 53.3759 243.045 53.1032C243.356 52.8304 243.388 52.3566 243.115 52.0449C241.278 49.9447 238.315 48.8125 235.289 48.8125C232.25 48.8125 229.06 49.9527 226.755 52.5132C226.478 52.8211 226.503 53.2953 226.811 53.5724C227.119 53.8495 227.593 53.8245 227.87 53.5167ZM235.586 60.8363C236.415 60.8363 237.086 60.1647 237.086 59.3363C237.086 58.5079 236.415 57.8363 235.586 57.8363C234.758 57.8363 234.086 58.5079 234.086 59.3363C234.086 60.1647 234.758 60.8363 235.586 60.8363ZM240.116 54.9739C237.581 52.4394 233.295 52.3788 230.224 55.4501C229.931 55.743 229.456 55.743 229.163 55.4501C228.87 55.1572 228.87 54.6823 229.163 54.3894C232.759 50.7939 237.997 50.7333 241.176 53.9132C241.469 54.2061 241.469 54.681 241.176 54.9739C240.884 55.2668 240.409 55.2668 240.116 54.9739ZM232.605 57.3549C233.667 56.2926 234.777 55.9189 235.728 55.9664C236.685 56.0143 237.554 56.4918 238.141 57.2745C238.39 57.6059 238.86 57.6731 239.191 57.4245C239.523 57.176 239.59 56.7059 239.341 56.3745C238.5 55.2524 237.226 54.5395 235.802 54.4683C234.372 54.3968 232.863 54.9754 231.544 56.2942C231.251 56.5871 231.251 57.062 231.544 57.3549C231.837 57.6478 232.312 57.6478 232.605 57.3549Z" fill="#A5CA3C"/>
<circle cx="9" cy="9" r="8.5" fill="#F8EDCD" stroke="#E2E09F"/>
<path fill-rule="evenodd" clip-rule="evenodd" d="M3.79185 8.01293C5.23742 6.40674 7.25556 5.67188 9.21663 5.67188C11.1908 5.67188 13.0197 6.41473 14.0987 7.64794C14.3715 7.95966 14.8453 7.99125 15.157 7.71849C15.4688 7.44573 15.5003 6.97191 15.2276 6.66018C13.8066 5.03619 11.5283 4.17187 9.21663 4.17188C6.89191 4.17188 4.44568 5.04418 2.67691 7.00948C2.39982 7.31737 2.42478 7.79158 2.73266 8.06868C3.04054 8.34577 3.51476 8.32081 3.79185 8.01293ZM9.43973 13.3772C10.0611 13.3772 10.5647 12.8735 10.5647 12.2522C10.5647 11.6309 10.0611 11.1272 9.43973 11.1272C8.81841 11.1272 8.31473 11.6309 8.31473 12.2522C8.31473 12.8735 8.81841 13.3772 9.43973 13.3772ZM12.7042 9.11298C10.8841 7.29281 7.78837 7.23223 5.55047 9.47013C5.25758 9.76302 4.7827 9.76302 4.48981 9.47013C4.19692 9.17724 4.19692 8.70236 4.48981 8.40947C7.252 5.64728 11.2993 5.5867 13.7649 8.05232C14.0578 8.34522 14.0578 8.82009 13.7649 9.11298C13.472 9.40588 12.9971 9.40588 12.7042 9.11298ZM7.33616 10.8987C8.10076 10.1341 8.88375 9.87946 9.53628 9.91208C10.1959 9.94507 10.7975 10.2738 11.2059 10.8184C11.4544 11.1498 11.9245 11.2169 12.2559 10.9684C12.5873 10.7199 12.6544 10.2498 12.4059 9.9184C11.7429 9.03442 10.7373 8.47026 9.61119 8.41396C8.47798 8.35729 7.29665 8.81692 6.2755 9.83807C5.98261 10.131 5.98261 10.6058 6.2755 10.8987C6.56839 11.1916 7.04327 11.1916 7.33616 10.8987Z" fill="#A5CA3C"/>
<circle cx="78" cy="215" r="15.5" fill="#FBE7C0" stroke="#E2E09F"/>
<path fill-rule="evenodd" clip-rule="evenodd" d="M68.3075 212.855C71.0031 209.86 74.7574 208.5 78.3851 208.5C82.0259 208.5 85.4521 209.868 87.5034 212.212C87.7762 212.524 88.25 212.556 88.5617 212.283C88.8734 212.01 88.905 211.536 88.6323 211.224C86.239 208.489 82.3635 207 78.3851 207C74.3937 207 70.2113 208.497 67.1925 211.852C66.9154 212.159 66.9404 212.634 67.2483 212.911C67.5562 213.188 68.0304 213.163 68.3075 212.855ZM78.7817 222.782C79.8863 222.782 80.7817 221.886 80.7817 220.782C80.7817 219.677 79.8863 218.782 78.7817 218.782C77.6772 218.782 76.7817 219.677 76.7817 220.782C76.7817 221.886 77.6772 222.782 78.7817 222.782ZM84.9978 214.788C81.5109 211.302 75.6374 211.241 71.455 215.423C71.1621 215.716 70.6873 215.716 70.3944 215.423C70.1015 215.13 70.1015 214.656 70.3944 214.363C75.101 209.656 81.9261 209.595 86.0584 213.728C86.3513 214.021 86.3513 214.495 86.0584 214.788C85.7656 215.081 85.2907 215.081 84.9978 214.788ZM74.6296 217.963C76.0886 216.504 77.6355 215.972 78.9825 216.039C80.3366 216.107 81.5632 216.783 82.3883 217.883C82.6368 218.214 83.1069 218.281 83.4383 218.033C83.7697 217.784 83.8368 217.314 83.5883 216.983C82.5086 215.543 80.878 214.632 79.0574 214.541C77.2298 214.449 75.2845 215.187 73.5689 216.902C73.276 217.195 73.276 217.67 73.5689 217.963C73.8618 218.256 74.3367 218.256 74.6296 217.963Z" fill="#A5CA3C"/>
<circle cx="194" cy="323" r="15.5" fill="#FAE3B7" stroke="#E2E09F"/>
<path fill-rule="evenodd" clip-rule="evenodd" d="M184.307 320.855C187.003 317.86 190.757 316.5 194.385 316.5C198.026 316.5 201.452 317.868 203.503 320.212C203.776 320.524 204.25 320.556 204.562 320.283C204.873 320.01 204.905 319.536 204.632 319.224C202.239 316.489 198.363 315 194.385 315C190.394 315 186.211 316.497 183.193 319.852C182.915 320.159 182.94 320.634 183.248 320.911C183.556 321.188 184.03 321.163 184.307 320.855ZM194.782 330.782C195.886 330.782 196.782 329.886 196.782 328.782C196.782 327.677 195.886 326.782 194.782 326.782C193.677 326.782 192.782 327.677 192.782 328.782C192.782 329.886 193.677 330.782 194.782 330.782ZM200.998 322.788C197.511 319.302 191.637 319.241 187.455 323.423C187.162 323.716 186.687 323.716 186.394 323.423C186.101 323.13 186.101 322.656 186.394 322.363C191.101 317.656 197.926 317.595 202.058 321.728C202.351 322.021 202.351 322.495 202.058 322.788C201.766 323.081 201.291 323.081 200.998 322.788ZM190.63 325.963C192.089 324.504 193.636 323.972 194.983 324.039C196.337 324.107 197.563 324.783 198.388 325.883C198.637 326.214 199.107 326.281 199.438 326.033C199.77 325.784 199.837 325.314 199.588 324.983C198.509 323.543 196.878 322.632 195.057 322.541C193.23 322.449 191.285 323.187 189.569 324.902C189.276 325.195 189.276 325.67 189.569 325.963C189.862 326.256 190.337 326.256 190.63 325.963Z" fill="#A5CA3C"/>
</svg>
