<svg width="96" height="18" viewBox="0 0 96 18" fill="none" xmlns="http://www.w3.org/2000/svg">
<g clip-path="url(#clip0)">
<path d="M12.2182 7.64789C14.5313 5.76001 19.2553 -1.04289 11.8598 0.161454C8.63447 0.6497 3.9105 3.77447 2.9657 7.38749C2.47702 6.411 1.92317 5.49961 1.33675 4.58822C0.424532 3.35133 -0.585421 4.32782 0.391953 5.56471C3.28923 9.06935 4.95967 13.4246 5.14851 17.9662C5.37656 15.7853 5.01819 13.1162 4.13855 10.5123C4.56208 10.6425 5.05077 10.7076 5.4743 10.7076C6.97294 13.1813 9.28606 15.2971 11.8598 16.2736C14.2381 17.2175 17.3983 16.6642 16.0951 12.8558C15.4109 10.7727 13.8146 8.94988 12.2182 7.64789ZM12.544 1.0403C16.6489 0.5846 12.2508 5.69491 10.8173 6.63885C9.48153 5.76001 7.78742 4.97881 6.15846 5.20666C7.33131 3.67683 10.1983 1.33324 12.544 1.0403ZM6.12588 6.31335C7.23357 6.2157 8.439 6.83415 9.38379 7.48514C8.47158 7.94084 7.4942 8.20124 6.48425 8.29889C4.98561 8.29889 4.65982 6.44355 6.12588 6.31335ZM11.7946 14.2555C9.87248 13.7021 8.04805 12.1398 6.74488 10.5774C7.81999 10.3495 8.89511 9.92637 9.87248 9.34048C10.2309 9.17773 10.5892 8.91733 10.915 8.68948C12.0553 9.73107 13.2607 11.1307 13.7168 12.7256C14.1729 14.4508 12.9349 14.581 11.7946 14.2555Z" fill="#E5B910"/>
<path d="M27.9526 3.35218H22.349C22.1535 3.35218 21.9906 3.51493 21.9906 3.71023H21.958V12.4987C21.958 12.694 22.1209 12.8567 22.3164 12.8567C22.4793 12.8567 22.6422 12.694 22.6747 12.4987V8.52759H27.4313C27.6268 8.52759 27.7245 8.36484 27.7245 8.20209C27.7245 8.00679 27.5942 7.90914 27.4313 7.90914H22.6422V4.03572H27.9526C28.148 4.03572 28.2458 3.87298 28.2458 3.71023C28.2458 3.61258 28.148 3.48238 27.9526 3.35218ZM30.5263 2.89648H30.4937C30.3308 2.89648 30.2331 3.02668 30.2331 3.18943V12.4661C30.2331 12.6614 30.3634 12.7916 30.5263 12.7916C30.7218 12.7916 30.8195 12.6289 30.8195 12.4661V3.25453C30.8195 3.02668 30.7218 2.89648 30.5263 2.89648ZM38.6385 6.21656C38.6385 6.02126 38.5082 5.89106 38.3453 5.89106C38.1498 5.89106 38.0521 6.05381 38.0521 6.21656V10.09C38.0521 11.392 37.0422 12.4336 35.8041 12.401C34.501 12.401 33.7517 11.4896 33.7517 10.0574V6.21656C33.7517 6.02126 33.6213 5.89106 33.4584 5.89106C33.3281 5.89106 33.1652 6.05381 33.1652 6.21656V10.1551C33.1652 11.7826 34.1426 12.9869 35.739 12.9869C36.7164 13.0194 37.6286 12.4661 38.0847 11.5547V12.5638C38.0847 12.7591 38.2476 12.8567 38.3779 12.8567C38.5734 12.8567 38.6711 12.694 38.6711 12.5638H38.6385V6.21656ZM44.0141 6.54205C44.1444 6.54205 44.3073 6.41185 44.3073 6.24911C44.3073 6.11891 44.1444 5.95616 44.0141 5.95616H41.9616V4.03572C41.9616 3.87298 41.7987 3.71023 41.6684 3.71023H41.6358C41.4729 3.71023 41.3752 3.87298 41.3752 4.03572V5.95616H40.6584C40.4955 5.95616 40.3652 6.05381 40.3652 6.21656C40.3652 6.37931 40.4955 6.54205 40.6584 6.54205H41.3752V11.0339C41.3752 12.3034 42.1897 12.9218 43.1345 12.9218C43.4602 12.9218 43.786 12.8567 44.0792 12.7591C44.177 12.694 44.2747 12.5963 44.2747 12.4661C44.2747 12.3034 44.1444 12.2057 44.0141 12.2057C43.786 12.2708 43.5254 12.3034 43.2648 12.3034C42.4829 12.3034 41.9616 11.9453 41.9616 10.9688V6.54205H44.0141ZM49.0639 6.54205C49.2268 6.54205 49.3571 6.41185 49.3571 6.24911C49.3571 6.11891 49.2268 5.95616 49.0639 5.95616H47.0114V4.03572C47.0114 3.87298 46.8811 3.71023 46.7182 3.71023H46.6856C46.5227 3.71023 46.4249 3.87298 46.4249 4.03572V5.95616H45.7082C45.5779 5.95616 45.415 6.05381 45.415 6.21656C45.415 6.37931 45.5779 6.54205 45.7082 6.54205H46.4249V11.0339C46.4249 12.3034 47.2394 12.9218 48.2168 12.9218C48.51 12.9218 48.8358 12.8567 49.129 12.7591C49.2593 12.694 49.3245 12.5963 49.3245 12.4661C49.3245 12.3034 49.2268 12.2057 49.0639 12.2057C48.8358 12.2708 48.5752 12.3034 48.3145 12.3034C47.5326 12.3034 47.0114 11.9453 47.0114 10.9688V6.54205H49.0639ZM53.5272 5.76086C51.8005 5.76086 50.4973 7.32325 50.4973 9.37388V9.40643C50.4973 11.5873 51.9308 13.0194 53.6575 13.0194C54.5697 13.052 55.5145 12.6614 56.1335 11.9128C56.2313 11.8477 56.2638 11.75 56.2638 11.6849C56.2638 11.5222 56.101 11.3594 55.9706 11.3594L55.7752 11.4245C55.5167 11.7256 55.1971 11.9683 54.8377 12.1367C54.4782 12.305 54.087 12.3951 53.6901 12.401C52.4195 12.401 51.2792 11.392 51.1489 9.69938H56.2313C56.3616 9.69938 56.5245 9.53663 56.5245 9.37388C56.5245 7.32325 55.3516 5.76086 53.5272 5.76086ZM51.1163 9.04838C51.2141 7.5511 52.224 6.37931 53.4946 6.37931C54.9607 6.37931 55.7426 7.64874 55.8077 9.04838H51.1163ZM61.5091 5.85851C60.3362 5.95616 59.3589 6.7699 58.9353 7.94169V6.24911C58.9353 6.11891 58.7724 5.95616 58.6421 5.95616C58.4467 5.95616 58.3489 6.05381 58.3163 6.24911V12.6289C58.3163 12.7916 58.4467 12.9544 58.6095 12.9544C58.7724 12.9544 58.9028 12.8242 58.9353 12.6289V10.09C58.9353 7.84404 60.1408 6.7699 61.5091 6.60715H61.5417C61.7371 6.60715 61.8349 6.41185 61.8349 6.24911C61.8349 6.02126 61.7046 5.85851 61.5091 5.85851Z" fill="#E5B910"/>
<path d="M72.4887 5.5007C72.0652 5.5007 71.6742 5.8262 71.5765 6.28189L70.4688 9.99256L69.3937 6.28189C69.296 5.8262 68.8724 5.46815 68.3838 5.46815H68.286C67.7973 5.46815 67.3738 5.7611 67.2761 6.28189L66.201 9.92746L65.1584 6.24934C65.0281 5.8262 64.6697 5.46815 64.2136 5.46815H64.181C63.6924 5.46815 63.334 5.89129 63.334 6.41209L63.3991 6.90034L65.0607 12.0106C65.191 12.5314 65.6145 12.8895 66.1358 12.922H66.201C66.6896 12.922 67.0806 12.564 67.2435 12.0432L68.3186 8.39762L69.3937 12.0432C69.524 12.564 69.9476 12.922 70.4362 12.922H70.534C71.0552 12.922 71.4788 12.564 71.6091 12.0106L73.2706 6.83524L73.3684 6.44464V6.41209C73.3684 5.89129 72.9774 5.5007 72.4887 5.5007ZM77.2779 5.5007C76.5285 5.46815 75.8118 5.6309 75.0951 5.85874C74.8018 5.98894 74.639 6.28189 74.639 6.63994C74.639 7.12818 74.9973 7.48623 75.4534 7.45368C75.5186 7.45368 75.6163 7.45368 75.7141 7.38858C76.1376 7.25838 76.5937 7.19328 77.0498 7.19328C78.0272 7.19328 78.5159 7.64898 78.5159 8.52782V8.62547C77.9946 8.43017 77.4082 8.36507 76.8543 8.36507C75.258 8.36507 74.1503 9.11372 74.1503 10.7087C74.1503 12.1083 75.2254 12.922 76.4634 12.922C77.2453 12.9546 77.9946 12.5965 78.5159 12.0106C78.5485 12.5314 78.9394 12.8895 79.4281 12.8895C79.9494 12.8895 80.3729 12.4338 80.3729 11.8804V8.62547C80.4055 7.81173 80.1448 6.96544 79.6236 6.34699C79.0697 5.8262 78.3204 5.5007 77.2779 5.5007ZM78.5485 10.2204C78.5485 11.0016 77.8969 11.4898 77.0172 11.4573C76.3982 11.4573 75.9747 11.1318 75.9747 10.5785V10.5459C75.9747 9.92746 76.496 9.53686 77.3104 9.53686C77.7014 9.53686 78.1575 9.66706 78.5485 9.82981V10.2204ZM86.9865 5.46815C86.5955 5.46815 86.2046 5.72855 86.1068 6.18424L84.6082 10.3832L83.1747 6.21679C83.0444 5.7611 82.686 5.46815 82.2299 5.46815C81.7412 5.46815 81.3503 5.85874 81.2851 6.41209C81.2851 6.57484 81.3503 6.73759 81.4154 6.90034L83.5005 12.0106C83.6308 12.5314 84.0543 12.8895 84.5756 12.922H84.7059C85.162 12.8895 85.6181 12.564 85.8136 12.0432L87.8335 6.93289L87.9312 6.44464V6.41209C87.9312 5.89129 87.5403 5.46815 86.9865 5.46815ZM92.0362 5.4356C90.0489 5.4356 88.6806 7.12818 88.6806 9.17882V9.50431C88.7457 11.4898 90.3747 13.0197 92.2317 12.922C93.0788 12.922 93.8932 12.6291 94.5774 12.0432C94.7729 11.8804 94.838 11.6851 94.838 11.4573V11.4247C94.838 10.9691 94.5122 10.611 94.0887 10.611C93.9258 10.611 93.7629 10.6436 93.6326 10.7738C93.2529 11.1004 92.7652 11.2745 92.2643 11.262C91.4498 11.2945 90.7331 10.7087 90.6353 9.82981H94.4471C94.9358 9.79726 95.3267 9.34157 95.2941 8.82077V8.65802C95.2941 6.90034 93.8281 5.3705 92.0362 5.4356ZM90.5702 8.62547C90.7331 7.68153 91.2543 7.09563 92.0362 7.09563C92.8181 7.09563 93.3394 7.71408 93.4371 8.62547H90.5702Z" fill="#E5B910" stroke="#E5B910" stroke-width="0.183673"/>
</g>
<defs>
<clipPath id="clip0">
<rect width="95.3265" height="18" fill="white"/>
</clipPath>
</defs>
</svg>
